<svg xmlns="http://www.w3.org/2000/svg" viewBox="0 0 1200 514" preserveAspectRatio="xMidYMid slice"><rect width="1200" height="514" fill="#24c7e6"/><g fill="#0d1022" opacity="0.1"><circle cx="18" cy="18" r="2.2"/><circle cx="18" cy="54" r="2.2"/><circle cx="18" cy="90" r="2.2"/><circle cx="18" cy="126" r="2.2"/><circle cx="18" cy="162" r="2.2"/><circle cx="18" cy="198" r="2.2"/><circle cx="18" cy="234" r="2.2"/><circle cx="18" cy="270" r="2.2"/><circle cx="18" cy="306" r="2.2"/><circle cx="18" cy="342" r="2.2"/><circle cx="18" cy="378" r="2.2"/><circle cx="18" cy="414" r="2.2"/><circle cx="18" cy="450" r="2.2"/><circle cx="18" cy="486" r="2.2"/><circle cx="54" cy="18" r="2.2"/><circle cx="54" cy="54" r="2.2"/><circle cx="54" cy="90" r="2.2"/><circle cx="54" cy="126" r="2.2"/><circle cx="54" cy="162" r="2.2"/><circle cx="54" cy="198" r="2.2"/><circle cx="54" cy="234" r="2.2"/><circle cx="54" cy="270" r="2.2"/><circle cx="54" cy="306" r="2.2"/><circle cx="54" cy="342" r="2.2"/><circle cx="54" cy="378" r="2.2"/><circle cx="54" cy="414" r="2.2"/><circle cx="54" cy="450" r="2.2"/><circle cx="54" cy="486" r="2.2"/><circle cx="90" cy="18" r="2.2"/><circle cx="90" cy="54" r="2.2"/><circle cx="90" cy="90" r="2.2"/><circle cx="90" cy="126" r="2.2"/><circle cx="90" cy="162" r="2.2"/><circle cx="90" cy="198" r="2.2"/><circle cx="90" cy="234" r="2.2"/><circle cx="90" cy="270" r="2.2"/><circle cx="90" cy="306" r="2.2"/><circle cx="90" cy="342" r="2.2"/><circle cx="90" cy="378" r="2.2"/><circle cx="90" cy="414" r="2.2"/><circle cx="90" cy="450" r="2.2"/><circle cx="90" cy="486" r="2.2"/><circle cx="126" cy="18" r="2.2"/><circle cx="126" cy="54" r="2.2"/><circle cx="126" cy="90" r="2.2"/><circle cx="126" cy="126" r="2.2"/><circle cx="126" cy="162" r="2.2"/><circle cx="126" cy="198" r="2.2"/><circle cx="126" cy="234" r="2.2"/><circle cx="126" cy="270" r="2.2"/><circle cx="126" cy="306" r="2.2"/><circle cx="126" cy="342" r="2.2"/><circle cx="126" cy="378" r="2.2"/><circle cx="126" cy="414" r="2.2"/><circle cx="126" cy="450" r="2.2"/><circle cx="126" cy="486" r="2.2"/><circle cx="162" cy="18" r="2.2"/><circle cx="162" cy="54" r="2.2"/><circle cx="162" cy="90" r="2.2"/><circle cx="162" cy="126" r="2.2"/><circle cx="162" cy="162" r="2.2"/><circle cx="162" cy="198" r="2.2"/><circle cx="162" cy="234" r="2.2"/><circle cx="162" cy="270" r="2.2"/><circle cx="162" cy="306" r="2.2"/><circle cx="162" cy="342" r="2.2"/><circle cx="162" cy="378" r="2.2"/><circle cx="162" cy="414" r="2.2"/><circle cx="162" cy="450" r="2.2"/><circle cx="162" cy="486" r="2.2"/><circle cx="198" cy="18" r="2.2"/><circle cx="198" cy="54" r="2.2"/><circle cx="198" cy="90" r="2.2"/><circle cx="198" cy="126" r="2.2"/><circle cx="198" cy="162" r="2.2"/><circle cx="198" cy="198" r="2.2"/><circle cx="198" cy="234" r="2.2"/><circle cx="198" cy="270" r="2.2"/><circle cx="198" cy="306" r="2.2"/><circle cx="198" cy="342" r="2.2"/><circle cx="198" cy="378" r="2.2"/><circle cx="198" cy="414" r="2.2"/><circle cx="198" cy="450" r="2.2"/><circle cx="198" cy="486" r="2.2"/><circle cx="234" cy="18" r="2.2"/><circle cx="234" cy="54" r="2.2"/><circle cx="234" cy="90" r="2.2"/><circle cx="234" cy="126" r="2.2"/><circle cx="234" cy="162" r="2.2"/><circle cx="234" cy="198" r="2.2"/><circle cx="234" cy="234" r="2.2"/><circle cx="234" cy="270" r="2.2"/><circle cx="234" cy="306" r="2.2"/><circle cx="234" cy="342" r="2.2"/><circle cx="234" cy="378" r="2.2"/><circle cx="234" cy="414" r="2.2"/><circle cx="234" cy="450" r="2.2"/><circle cx="234" cy="486" r="2.2"/><circle cx="270" cy="18" r="2.2"/><circle cx="270" cy="54" r="2.2"/><circle cx="270" cy="90" r="2.2"/><circle cx="270" cy="126" r="2.2"/><circle cx="270" cy="162" r="2.2"/><circle cx="270" cy="198" r="2.2"/><circle cx="270" cy="234" r="2.2"/><circle cx="270" cy="270" r="2.2"/><circle cx="270" cy="306" r="2.2"/><circle cx="270" cy="342" r="2.2"/><circle cx="270" cy="378" r="2.2"/><circle cx="270" cy="414" r="2.2"/><circle cx="270" cy="450" r="2.2"/><circle cx="270" cy="486" r="2.2"/><circle cx="306" cy="18" r="2.2"/><circle cx="306" cy="54" r="2.2"/><circle cx="306" cy="90" r="2.2"/><circle cx="306" cy="126" r="2.2"/><circle cx="306" cy="162" r="2.2"/><circle cx="306" cy="198" r="2.2"/><circle cx="306" cy="234" r="2.2"/><circle cx="306" cy="270" r="2.2"/><circle cx="306" cy="306" r="2.2"/><circle cx="306" cy="342" r="2.2"/><circle cx="306" cy="378" r="2.2"/><circle cx="306" cy="414" r="2.2"/><circle cx="306" cy="450" r="2.2"/><circle cx="306" cy="486" r="2.2"/><circle cx="342" cy="18" r="2.2"/><circle cx="342" cy="54" r="2.2"/><circle cx="342" cy="90" r="2.2"/><circle cx="342" cy="126" r="2.2"/><circle cx="342" cy="162" r="2.2"/><circle cx="342" cy="198" r="2.2"/><circle cx="342" cy="234" r="2.2"/><circle cx="342" cy="270" r="2.2"/><circle cx="342" cy="306" r="2.2"/><circle cx="342" cy="342" r="2.2"/><circle cx="342" cy="378" r="2.2"/><circle cx="342" cy="414" r="2.2"/><circle cx="342" cy="450" r="2.2"/><circle cx="342" cy="486" r="2.2"/><circle cx="378" cy="18" r="2.2"/><circle cx="378" cy="54" r="2.2"/><circle cx="378" cy="90" r="2.2"/><circle cx="378" cy="126" r="2.2"/><circle cx="378" cy="162" r="2.2"/><circle cx="378" cy="198" r="2.2"/><circle cx="378" cy="234" r="2.2"/><circle cx="378" cy="270" r="2.2"/><circle cx="378" cy="306" r="2.2"/><circle cx="378" cy="342" r="2.2"/><circle cx="378" cy="378" r="2.2"/><circle cx="378" cy="414" r="2.2"/><circle cx="378" cy="450" r="2.2"/><circle cx="378" cy="486" r="2.2"/><circle cx="414" cy="18" r="2.2"/><circle cx="414" cy="54" r="2.2"/><circle cx="414" cy="90" r="2.2"/><circle cx="414" cy="126" r="2.2"/><circle cx="414" cy="162" r="2.2"/><circle cx="414" cy="198" r="2.2"/><circle cx="414" cy="234" r="2.2"/><circle cx="414" cy="270" r="2.2"/><circle cx="414" cy="306" r="2.2"/><circle cx="414" cy="342" r="2.2"/><circle cx="414" cy="378" r="2.2"/><circle cx="414" cy="414" r="2.2"/><circle cx="414" cy="450" r="2.2"/><circle cx="414" cy="486" r="2.2"/><circle cx="450" cy="18" r="2.2"/><circle cx="450" cy="54" r="2.2"/><circle cx="450" cy="90" r="2.2"/><circle cx="450" cy="126" r="2.2"/><circle cx="450" cy="162" r="2.2"/><circle cx="450" cy="198" r="2.2"/><circle cx="450" cy="234" r="2.2"/><circle cx="450" cy="270" r="2.2"/><circle cx="450" cy="306" r="2.2"/><circle cx="450" cy="342" r="2.2"/><circle cx="450" cy="378" r="2.2"/><circle cx="450" cy="414" r="2.2"/><circle cx="450" cy="450" r="2.2"/><circle cx="450" cy="486" r="2.2"/><circle cx="486" cy="18" r="2.2"/><circle cx="486" cy="54" r="2.2"/><circle cx="486" cy="90" r="2.2"/><circle cx="486" cy="126" r="2.2"/><circle cx="486" cy="162" r="2.2"/><circle cx="486" cy="198" r="2.2"/><circle cx="486" cy="234" r="2.2"/><circle cx="486" cy="270" r="2.2"/><circle cx="486" cy="306" r="2.2"/><circle cx="486" cy="342" r="2.2"/><circle cx="486" cy="378" r="2.2"/><circle cx="486" cy="414" r="2.2"/><circle cx="486" cy="450" r="2.2"/><circle cx="486" cy="486" r="2.2"/><circle cx="522" cy="18" r="2.2"/><circle cx="522" cy="54" r="2.2"/><circle cx="522" cy="90" r="2.2"/><circle cx="522" cy="126" r="2.2"/><circle cx="522" cy="162" r="2.2"/><circle cx="522" cy="198" r="2.2"/><circle cx="522" cy="234" r="2.2"/><circle cx="522" cy="270" r="2.2"/><circle cx="522" cy="306" r="2.2"/><circle cx="522" cy="342" r="2.2"/><circle cx="522" cy="378" r="2.2"/><circle cx="522" cy="414" r="2.2"/><circle cx="522" cy="450" r="2.2"/><circle cx="522" cy="486" r="2.2"/><circle cx="558" cy="18" r="2.2"/><circle cx="558" cy="54" r="2.2"/><circle cx="558" cy="90" r="2.2"/><circle cx="558" cy="126" r="2.2"/><circle cx="558" cy="162" r="2.2"/><circle cx="558" cy="198" r="2.2"/><circle cx="558" cy="234" r="2.2"/><circle cx="558" cy="270" r="2.2"/><circle cx="558" cy="306" r="2.2"/><circle cx="558" cy="342" r="2.2"/><circle cx="558" cy="378" r="2.2"/><circle cx="558" cy="414" r="2.2"/><circle cx="558" cy="450" r="2.2"/><circle cx="558" cy="486" r="2.2"/><circle cx="594" cy="18" r="2.2"/><circle cx="594" cy="54" r="2.2"/><circle cx="594" cy="90" r="2.2"/><circle cx="594" cy="126" r="2.2"/><circle cx="594" cy="162" r="2.2"/><circle cx="594" cy="198" r="2.2"/><circle cx="594" cy="234" r="2.2"/><circle cx="594" cy="270" r="2.2"/><circle cx="594" cy="306" r="2.2"/><circle cx="594" cy="342" r="2.2"/><circle cx="594" cy="378" r="2.2"/><circle cx="594" cy="414" r="2.2"/><circle cx="594" cy="450" r="2.2"/><circle cx="594" cy="486" r="2.2"/><circle cx="630" cy="18" r="2.2"/><circle cx="630" cy="54" r="2.2"/><circle cx="630" cy="90" r="2.2"/><circle cx="630" cy="126" r="2.2"/><circle cx="630" cy="162" r="2.2"/><circle cx="630" cy="198" r="2.2"/><circle cx="630" cy="234" r="2.2"/><circle cx="630" cy="270" r="2.2"/><circle cx="630" cy="306" r="2.2"/><circle cx="630" cy="342" r="2.2"/><circle cx="630" cy="378" r="2.2"/><circle cx="630" cy="414" r="2.2"/><circle cx="630" cy="450" r="2.2"/><circle cx="630" cy="486" r="2.2"/><circle cx="666" cy="18" r="2.2"/><circle cx="666" cy="54" r="2.2"/><circle cx="666" cy="90" r="2.2"/><circle cx="666" cy="126" r="2.2"/><circle cx="666" cy="162" r="2.2"/><circle cx="666" cy="198" r="2.2"/><circle cx="666" cy="234" r="2.2"/><circle cx="666" cy="270" r="2.2"/><circle cx="666" cy="306" r="2.2"/><circle cx="666" cy="342" r="2.2"/><circle cx="666" cy="378" r="2.2"/><circle cx="666" cy="414" r="2.2"/><circle cx="666" cy="450" r="2.2"/><circle cx="666" cy="486" r="2.2"/><circle cx="702" cy="18" r="2.2"/><circle cx="702" cy="54" r="2.2"/><circle cx="702" cy="90" r="2.2"/><circle cx="702" cy="126" r="2.2"/><circle cx="702" cy="162" r="2.2"/><circle cx="702" cy="198" r="2.2"/><circle cx="702" cy="234" r="2.2"/><circle cx="702" cy="270" r="2.2"/><circle cx="702" cy="306" r="2.2"/><circle cx="702" cy="342" r="2.2"/><circle cx="702" cy="378" r="2.2"/><circle cx="702" cy="414" r="2.2"/><circle cx="702" cy="450" r="2.2"/><circle cx="702" cy="486" r="2.2"/><circle cx="738" cy="18" r="2.2"/><circle cx="738" cy="54" r="2.2"/><circle cx="738" cy="90" r="2.2"/><circle cx="738" cy="126" r="2.2"/><circle cx="738" cy="162" r="2.2"/><circle cx="738" cy="198" r="2.2"/><circle cx="738" cy="234" r="2.2"/><circle cx="738" cy="270" r="2.2"/><circle cx="738" cy="306" r="2.2"/><circle cx="738" cy="342" r="2.2"/><circle cx="738" cy="378" r="2.2"/><circle cx="738" cy="414" r="2.2"/><circle cx="738" cy="450" r="2.2"/><circle cx="738" cy="486" r="2.2"/><circle cx="774" cy="18" r="2.2"/><circle cx="774" cy="54" r="2.2"/><circle cx="774" cy="90" r="2.2"/><circle cx="774" cy="126" r="2.2"/><circle cx="774" cy="162" r="2.2"/><circle cx="774" cy="198" r="2.2"/><circle cx="774" cy="234" r="2.2"/><circle cx="774" cy="270" r="2.2"/><circle cx="774" cy="306" r="2.2"/><circle cx="774" cy="342" r="2.2"/><circle cx="774" cy="378" r="2.2"/><circle cx="774" cy="414" r="2.2"/><circle cx="774" cy="450" r="2.2"/><circle cx="774" cy="486" r="2.2"/><circle cx="810" cy="18" r="2.2"/><circle cx="810" cy="54" r="2.2"/><circle cx="810" cy="90" r="2.2"/><circle cx="810" cy="126" r="2.2"/><circle cx="810" cy="162" r="2.2"/><circle cx="810" cy="198" r="2.2"/><circle cx="810" cy="234" r="2.2"/><circle cx="810" cy="270" r="2.2"/><circle cx="810" cy="306" r="2.2"/><circle cx="810" cy="342" r="2.2"/><circle cx="810" cy="378" r="2.2"/><circle cx="810" cy="414" r="2.2"/><circle cx="810" cy="450" r="2.2"/><circle cx="810" cy="486" r="2.2"/><circle cx="846" cy="18" r="2.2"/><circle cx="846" cy="54" r="2.2"/><circle cx="846" cy="90" r="2.2"/><circle cx="846" cy="126" r="2.2"/><circle cx="846" cy="162" r="2.2"/><circle cx="846" cy="198" r="2.2"/><circle cx="846" cy="234" r="2.2"/><circle cx="846" cy="270" r="2.2"/><circle cx="846" cy="306" r="2.2"/><circle cx="846" cy="342" r="2.2"/><circle cx="846" cy="378" r="2.2"/><circle cx="846" cy="414" r="2.2"/><circle cx="846" cy="450" r="2.2"/><circle cx="846" cy="486" r="2.2"/><circle cx="882" cy="18" r="2.2"/><circle cx="882" cy="54" r="2.2"/><circle cx="882" cy="90" r="2.2"/><circle cx="882" cy="126" r="2.2"/><circle cx="882" cy="162" r="2.2"/><circle cx="882" cy="198" r="2.2"/><circle cx="882" cy="234" r="2.2"/><circle cx="882" cy="270" r="2.2"/><circle cx="882" cy="306" r="2.2"/><circle cx="882" cy="342" r="2.2"/><circle cx="882" cy="378" r="2.2"/><circle cx="882" cy="414" r="2.2"/><circle cx="882" cy="450" r="2.2"/><circle cx="882" cy="486" r="2.2"/><circle cx="918" cy="18" r="2.2"/><circle cx="918" cy="54" r="2.2"/><circle cx="918" cy="90" r="2.2"/><circle cx="918" cy="126" r="2.2"/><circle cx="918" cy="162" r="2.2"/><circle cx="918" cy="198" r="2.2"/><circle cx="918" cy="234" r="2.2"/><circle cx="918" cy="270" r="2.2"/><circle cx="918" cy="306" r="2.2"/><circle cx="918" cy="342" r="2.2"/><circle cx="918" cy="378" r="2.2"/><circle cx="918" cy="414" r="2.2"/><circle cx="918" cy="450" r="2.2"/><circle cx="918" cy="486" r="2.2"/><circle cx="954" cy="18" r="2.2"/><circle cx="954" cy="54" r="2.2"/><circle cx="954" cy="90" r="2.2"/><circle cx="954" cy="126" r="2.2"/><circle cx="954" cy="162" r="2.2"/><circle cx="954" cy="198" r="2.2"/><circle cx="954" cy="234" r="2.2"/><circle cx="954" cy="270" r="2.2"/><circle cx="954" cy="306" r="2.2"/><circle cx="954" cy="342" r="2.2"/><circle cx="954" cy="378" r="2.2"/><circle cx="954" cy="414" r="2.2"/><circle cx="954" cy="450" r="2.2"/><circle cx="954" cy="486" r="2.2"/><circle cx="990" cy="18" r="2.2"/><circle cx="990" cy="54" r="2.2"/><circle cx="990" cy="90" r="2.2"/><circle cx="990" cy="126" r="2.2"/><circle cx="990" cy="162" r="2.2"/><circle cx="990" cy="198" r="2.2"/><circle cx="990" cy="234" r="2.2"/><circle cx="990" cy="270" r="2.2"/><circle cx="990" cy="306" r="2.2"/><circle cx="990" cy="342" r="2.2"/><circle cx="990" cy="378" r="2.2"/><circle cx="990" cy="414" r="2.2"/><circle cx="990" cy="450" r="2.2"/><circle cx="990" cy="486" r="2.2"/><circle cx="1026" cy="18" r="2.2"/><circle cx="1026" cy="54" r="2.2"/><circle cx="1026" cy="90" r="2.2"/><circle cx="1026" cy="126" r="2.2"/><circle cx="1026" cy="162" r="2.2"/><circle cx="1026" cy="198" r="2.2"/><circle cx="1026" cy="234" r="2.2"/><circle cx="1026" cy="270" r="2.2"/><circle cx="1026" cy="306" r="2.2"/><circle cx="1026" cy="342" r="2.2"/><circle cx="1026" cy="378" r="2.2"/><circle cx="1026" cy="414" r="2.2"/><circle cx="1026" cy="450" r="2.2"/><circle cx="1026" cy="486" r="2.2"/><circle cx="1062" cy="18" r="2.2"/><circle cx="1062" cy="54" r="2.2"/><circle cx="1062" cy="90" r="2.2"/><circle cx="1062" cy="126" r="2.2"/><circle cx="1062" cy="162" r="2.2"/><circle cx="1062" cy="198" r="2.2"/><circle cx="1062" cy="234" r="2.2"/><circle cx="1062" cy="270" r="2.2"/><circle cx="1062" cy="306" r="2.2"/><circle cx="1062" cy="342" r="2.2"/><circle cx="1062" cy="378" r="2.2"/><circle cx="1062" cy="414" r="2.2"/><circle cx="1062" cy="450" r="2.2"/><circle cx="1062" cy="486" r="2.2"/><circle cx="1098" cy="18" r="2.2"/><circle cx="1098" cy="54" r="2.2"/><circle cx="1098" cy="90" r="2.2"/><circle cx="1098" cy="126" r="2.2"/><circle cx="1098" cy="162" r="2.2"/><circle cx="1098" cy="198" r="2.2"/><circle cx="1098" cy="234" r="2.2"/><circle cx="1098" cy="270" r="2.2"/><circle cx="1098" cy="306" r="2.2"/><circle cx="1098" cy="342" r="2.2"/><circle cx="1098" cy="378" r="2.2"/><circle cx="1098" cy="414" r="2.2"/><circle cx="1098" cy="450" r="2.2"/><circle cx="1098" cy="486" r="2.2"/><circle cx="1134" cy="18" r="2.2"/><circle cx="1134" cy="54" r="2.2"/><circle cx="1134" cy="90" r="2.2"/><circle cx="1134" cy="126" r="2.2"/><circle cx="1134" cy="162" r="2.2"/><circle cx="1134" cy="198" r="2.2"/><circle cx="1134" cy="234" r="2.2"/><circle cx="1134" cy="270" r="2.2"/><circle cx="1134" cy="306" r="2.2"/><circle cx="1134" cy="342" r="2.2"/><circle cx="1134" cy="378" r="2.2"/><circle cx="1134" cy="414" r="2.2"/><circle cx="1134" cy="450" r="2.2"/><circle cx="1134" cy="486" r="2.2"/><circle cx="1170" cy="18" r="2.2"/><circle cx="1170" cy="54" r="2.2"/><circle cx="1170" cy="90" r="2.2"/><circle cx="1170" cy="126" r="2.2"/><circle cx="1170" cy="162" r="2.2"/><circle cx="1170" cy="198" r="2.2"/><circle cx="1170" cy="234" r="2.2"/><circle cx="1170" cy="270" r="2.2"/><circle cx="1170" cy="306" r="2.2"/><circle cx="1170" cy="342" r="2.2"/><circle cx="1170" cy="378" r="2.2"/><circle cx="1170" cy="414" r="2.2"/><circle cx="1170" cy="450" r="2.2"/><circle cx="1170" cy="486" r="2.2"/></g><circle cx="840" cy="257" r="170" fill="none" stroke="#ffffff" stroke-width="3" opacity="0.5"/><circle cx="840" cy="257" r="240" fill="none" stroke="#ffffff" stroke-width="3" opacity="0.35"/><circle cx="840" cy="257" r="310" fill="none" stroke="#ffffff" stroke-width="3" opacity="0.22"/><circle cx="840" cy="257" r="380" fill="none" stroke="#ffffff" stroke-width="3" opacity="0.12"/>
<rect x="80" y="60" width="160" height="160" rx="36" fill="#8ee6f5" transform="rotate(-12 160 140)"/>
<circle cx="200" cy="420" r="90" fill="#6247ef" opacity=".9"/>
<path d="M840 90l170 62v108c0 108-74 180-170 214-96-34-170-106-170-214V152z" fill="#0d1022"/>
<path d="M840 90l170 62v108c0 108-74 180-170 214z" fill="#181c38"/>
<rect x="780" y="240" width="120" height="100" rx="18" fill="#6247ef"/><path d="M800 240v-30a40 40 0 0 1 80 0v30" fill="none" stroke="#8ee6f5" stroke-width="14"/>
<circle cx="840" cy="285" r="14" fill="#ffffff"/><rect x="834" y="290" width="12" height="28" rx="6" fill="#ffffff"/>
<path d="M1100 90Q1100 110 1120 110Q1100 110 1100 130Q1100 110 1080 110Q1100 110 1100 90z" fill="#ffffff"/><path d="M560 406Q560 420 574 420Q560 420 560 434Q560 420 546 420Q560 420 560 406z" fill="#ffffff"/><path d="M620 80Q620 90 630 90Q620 90 620 100Q620 90 610 90Q620 90 620 80z" fill="#0d1022"/></svg>